<svg width="336" height="59" viewBox="0 0 336 59" fill="none" xmlns="http://www.w3.org/2000/svg">
<path d="M38.38 22.43C32.12 21.31 27.14 22.35 27.6 19.56C27.99 17.33 31.46 16.21 35.45 16.21C40.47 16.21 45.09 17.8 48.18 19.56L53.96 4.81C49.86 2.82 43.24 0.580017 35.26 0.580017C23.22 0.580017 10.61 5.92 7.96001 19C5.74001 29.53 12.08 34.47 19.54 36.31C25.99 37.9 32.11 36.63 31.81 39.5C31.59 41.57 28.19 42.85 23.48 42.85C16.45 42.93 10.89 40.46 7.44001 38.38L0.0400085 52.66C4.57001 55.13 12.51 58.48 22.64 58.48C36.28 58.48 48.91 52.1 51.49 39.66C53.89 28.18 45.9 23.79 38.38 22.43Z" fill="black"/>
<path d="M95.54 32.56C94.42 37.89 90.12 41.65 84.7 41.65C79.68 41.65 76.58 38.44 77.81 32.8L84.52 1.63H64.9L58.15 33.19C54.46 50.89 68.09 58.49 82.53 58.49C96.89 58.49 111.3 51.05 114.98 33.51L121.76 1.63H102.14L95.54 32.56Z" fill="black"/>
<path d="M175.38 57.44H194.84L198.53 39.82H217.59L220.4 26.66H201.26L203.27 17.49H228.87L232.21 1.62H187.15L175.38 57.44Z" fill="black"/>
<path d="M150.99 1.21998C145.74 1.05998 131.02 1.54001 129.42 1.62001L117.65 57.44H137.27L145.75 17.01C146.95 17.01 148.56 16.85 150.29 17.09C153.13 17.41 156.33 18.76 155.77 22.59C154.84 28.51 147.65 28.75 146.41 34.71C145.16 40.67 148.69 57.44 148.69 57.44H169.82L164.75 38.14C169.83 34.55 173.64 29.45 175.11 23.07C178.19 9.51002 168.33 1.61998 150.99 1.21998Z" fill="black"/>
<path d="M324.67 1.62H324L319.12 24.51H292.76H292.09L296.97 1.62H296.92H296.25H285.68H285H284.88H284.21L276.56 37.35L276.37 38.22L256.05 1.62H245.08H244.41L232.64 57.44H233.31H244.6L252.46 20.6L252.95 21.47L273.23 57.44H273.91H284.48H285.15H285.2L289.84 35.27H290.51H316.87L312.23 57.44H312.9H324.19L335.96 1.62H324.67Z" fill="#00BBB4"/>
</svg>
