<svg width="83" height="46" viewBox="0 0 83 46" fill="none" xmlns="http://www.w3.org/2000/svg">
<path d="M74.93 38.3201H65.74V32.0801H80.19L74.83 24.5801H80.19L63.22 0.830078L46.25 24.5801H51.61L46.25 32.0801H60.7V38.3201H48.98C41.33 37.9701 35.22 31.6499 35.22 23.9199C35.22 21.1899 36 18.65 37.32 16.47C38.26 14.92 39.49 13.56 40.93 12.46C39.59 10.28 37.92 8.38008 35.98 6.83008C32.17 3.77008 27.39 2.03003 22.28 2.03003C10.21 2.03003 0.380005 11.8499 0.380005 23.9199C0.380005 35.9899 10.2 45.8101 22.28 45.8101L82.44 45.8301C82.44 41.6801 79.07 38.3201 74.93 38.3201ZM61.41 19.53H56.05L63.22 9.5L70.39 19.53H65.03L70.39 27.03H56.05L61.41 19.53ZM22.27 38.3401C14.32 38.3401 7.85001 31.8699 7.85001 23.9199C7.85001 15.9699 14.32 9.5 22.27 9.5C25.51 9.5 28.54 10.5599 31 12.4399C28.93 15.7799 27.74 19.7099 27.74 23.9199C27.74 29.4299 29.79 34.4701 33.16 38.3201L22.27 38.3401Z" fill="#00BBB4"/>
</svg>
